<?xml version="1.0" encoding="utf-8"?>
<!-- Generator: Adobe Illustrator 15.1.0, SVG Export Plug-In . SVG Version: 6.00 Build 0)  -->
<!DOCTYPE svg PUBLIC "-//W3C//DTD SVG 1.0//EN" "http://www.w3.org/TR/2001/REC-SVG-20010904/DTD/svg10.dtd">
<svg version="1.0" id="Layer_1" xmlns="http://www.w3.org/2000/svg" xmlns:xlink="http://www.w3.org/1999/xlink" x="0px" y="0px"
	 width="800px" height="600px" viewBox="0 0 800 600" enable-background="new 0 0 800 600" xml:space="preserve">
<filter id="AI_Shadow_1" height="150%">
  <feGaussianBlur in="SourceAlpha" stdDeviation="2"/> <!-- stdDeviation is how much to blur -->
    <feOffset dx="0" dy="0" result="offsetblur"/> <!-- how much to offset -->
    <feMerge> 
      <feMergeNode/> <!-- this contains the offset blurred image -->
      <feMergeNode in="SourceGraphic"/> <!-- this contains the element that the filter is applied to -->
   </feMerge>
</filter>
<g filter="url(#AI_Shadow_1)">
	<path fill="#FFFFFF" d="M310.812,161.768v6.028h-2.211V153.46h3.242c1.29,0,2.208,0.38,2.757,1.14
		c0.463,0.647,0.694,1.649,0.694,3.004c0,1.706-0.466,2.881-1.398,3.529l1.626,6.662h-2.287l-1.369-6.028H310.812z M310.812,155.532
		v4.164h0.873c0.588,0,0.981-0.231,1.18-0.694c0.118-0.284,0.178-0.776,0.178-1.477c0-0.668-0.076-1.14-0.228-1.418
		c-0.205-0.383-0.608-0.575-1.21-0.575H310.812z"/>
	<path fill="#FFFFFF" d="M319.118,167.795V153.46h5.76v2.071h-3.549v3.757h2.559v2.072h-2.559v4.283h3.549v2.151H319.118z"/>
	<path fill="#FFFFFF" d="M327.95,164.157l2.111-0.317c0.08,1.421,0.569,2.132,1.468,2.132c0.41,0,0.738-0.129,0.986-0.387
		c0.248-0.257,0.372-0.59,0.372-1c0-0.746-0.598-1.71-1.791-2.891l-0.208-0.208c-0.91-0.913-1.53-1.607-1.86-2.084
		c-0.58-0.846-0.871-1.709-0.871-2.589c0-0.992,0.326-1.838,0.977-2.539c0.651-0.702,1.47-1.052,2.454-1.052
		c0.992,0,1.784,0.35,2.379,1.051c0.542,0.641,0.853,1.474,0.933,2.498l-2.162,0.308c-0.072-1.196-0.476-1.794-1.209-1.794
		c-0.787,0-1.18,0.443-1.18,1.329c0,0.833,0.694,1.92,2.082,3.262c0.034,0.033,0.077,0.076,0.129,0.128
		c0.854,0.827,1.438,1.498,1.755,2.013c0.482,0.767,0.724,1.609,0.724,2.528c0,1.024-0.317,1.877-0.951,2.558
		s-1.461,1.021-2.479,1.021c-1.15,0-2.049-0.38-2.697-1.14C328.323,166.282,328.002,165.34,327.95,164.157z"/>
	<path fill="#FFFFFF" d="M337.94,164.157l2.112-0.317c0.079,1.421,0.568,2.132,1.467,2.132c0.409,0,0.738-0.129,0.986-0.387
		c0.247-0.257,0.372-0.59,0.372-1c0-0.746-0.597-1.71-1.791-2.891l-0.208-0.208c-0.911-0.913-1.531-1.607-1.859-2.084
		c-0.581-0.846-0.871-1.709-0.871-2.589c0-0.992,0.325-1.838,0.976-2.539c0.651-0.702,1.469-1.052,2.454-1.052
		c0.992,0,1.785,0.35,2.379,1.051c0.542,0.641,0.854,1.474,0.933,2.498l-2.161,0.308c-0.073-1.196-0.477-1.794-1.209-1.794
		c-0.787,0-1.18,0.443-1.18,1.329c0,0.833,0.694,1.92,2.082,3.262c0.033,0.033,0.075,0.076,0.128,0.128
		c0.853,0.827,1.438,1.498,1.755,2.013c0.482,0.767,0.724,1.609,0.724,2.528c0,1.024-0.318,1.877-0.952,2.558
		c-0.635,0.681-1.46,1.021-2.479,1.021c-1.15,0-2.049-0.38-2.697-1.14C338.313,166.282,337.994,165.34,337.94,164.157z"/>
	<path fill="#FFFFFF" d="M347.585,167.795l2.359-14.335h2.884l2.35,14.335h-2.28l-0.439-3.103h-2.234l-0.471,3.103H347.585z
		 M350.51,162.66h1.685l-0.751-5.988l-0.139,0L350.51,162.66z"/>
	<path fill="#FFFFFF" d="M358.21,164.118v-7.347c0-1.117,0.298-1.993,0.893-2.627c0.615-0.661,1.474-0.991,2.578-0.991
		c1.07,0,1.903,0.351,2.498,1.051c0.556,0.661,0.833,1.537,0.833,2.627v1.378h-2.27v-1.577c0-0.991-0.38-1.487-1.14-1.487
		c-0.761,0-1.14,0.496-1.14,1.487v8c0,0.998,0.379,1.497,1.14,1.497c0.76,0,1.14-0.499,1.14-1.497v-1.953h2.27v1.497
		c0,1.19-0.268,2.125-0.803,2.806c-0.588,0.747-1.458,1.12-2.607,1.12C359.341,168.103,358.21,166.774,358.21,164.118z"/>
	<path fill="#FFFFFF" d="M372.118,153.46h2.161l1.319,8.486c0.159,1.018,0.238,2.012,0.238,2.984v0.257
		c0.039-1.349,0.119-2.429,0.243-3.243l1.28-8.485h2.174l-2.538,14.335h-2.31L372.118,153.46z"/>
	<path fill="#FFFFFF" d="M382.614,156.771c0-1.117,0.298-1.993,0.893-2.627c0.614-0.661,1.474-0.991,2.578-0.991
		c1.07,0,1.903,0.351,2.498,1.051c0.556,0.661,0.833,1.537,0.833,2.627v7.346c0,1.19-0.268,2.125-0.803,2.806
		c-0.589,0.747-1.458,1.12-2.607,1.12c-2.261,0-3.391-1.328-3.391-3.985V156.771z M387.146,164.633v-8
		c0-0.991-0.38-1.487-1.14-1.487c-0.761,0-1.14,0.496-1.14,1.487v8c0,0.998,0.379,1.497,1.14,1.497
		C386.765,166.13,387.146,165.631,387.146,164.633z"/>
	<path fill="#FFFFFF" d="M393.299,153.46h2.26v11.104c0,0.912,0.39,1.368,1.169,1.368c0.747,0,1.121-0.456,1.121-1.368V153.46h2.25
		v10.717c0,1.19-0.261,2.125-0.783,2.806c-0.581,0.747-1.451,1.12-2.607,1.12c-2.273,0-3.41-1.328-3.41-3.985V153.46z"/>
	<path fill="#FFFFFF" d="M403.588,164.157l2.112-0.317c0.078,1.421,0.567,2.132,1.467,2.132c0.409,0,0.738-0.129,0.986-0.387
		c0.247-0.257,0.372-0.59,0.372-1c0-0.746-0.597-1.71-1.791-2.891l-0.208-0.208c-0.91-0.913-1.529-1.607-1.859-2.084
		c-0.58-0.846-0.87-1.709-0.87-2.589c0-0.992,0.325-1.838,0.976-2.539c0.65-0.702,1.469-1.052,2.454-1.052
		c0.991,0,1.784,0.35,2.38,1.051c0.541,0.641,0.853,1.474,0.931,2.498l-2.16,0.308c-0.073-1.196-0.477-1.794-1.21-1.794
		c-0.786,0-1.18,0.443-1.18,1.329c0,0.833,0.693,1.92,2.082,3.262c0.032,0.033,0.075,0.076,0.129,0.128
		c0.853,0.827,1.437,1.498,1.755,2.013c0.482,0.767,0.724,1.609,0.724,2.528c0,1.024-0.317,1.877-0.952,2.558
		s-1.461,1.021-2.479,1.021c-1.149,0-2.049-0.38-2.697-1.14C403.961,166.282,403.641,165.34,403.588,164.157z"/>
	<path fill="#FFFFFF" d="M417.703,164.157l2.111-0.317c0.08,1.421,0.569,2.132,1.469,2.132c0.409,0,0.738-0.129,0.986-0.387
		c0.247-0.257,0.371-0.59,0.371-1c0-0.746-0.598-1.71-1.791-2.891l-0.208-0.208c-0.91-0.913-1.53-1.607-1.859-2.084
		c-0.58-0.846-0.871-1.709-0.871-2.589c0-0.992,0.325-1.838,0.977-2.54s1.47-1.052,2.454-1.052c0.992,0,1.784,0.35,2.379,1.051
		c0.543,0.641,0.853,1.474,0.933,2.498l-2.162,0.308c-0.072-1.196-0.476-1.794-1.208-1.794c-0.788,0-1.181,0.443-1.181,1.329
		c0,0.833,0.694,1.92,2.082,3.262c0.033,0.033,0.076,0.076,0.128,0.128c0.854,0.827,1.438,1.498,1.755,2.013
		c0.482,0.767,0.724,1.609,0.724,2.528c0,1.024-0.316,1.877-0.951,2.558c-0.634,0.681-1.461,1.021-2.479,1.021
		c-1.15,0-2.049-0.38-2.696-1.14C418.077,166.282,417.756,165.34,417.703,164.157z"/>
	<path fill="#FFFFFF" d="M428.102,156.771c0-1.117,0.297-1.993,0.892-2.627c0.614-0.661,1.474-0.991,2.578-0.991
		c1.07,0,1.903,0.351,2.498,1.051c0.555,0.661,0.833,1.537,0.833,2.627v7.346c0,1.19-0.268,2.125-0.804,2.806
		c-0.588,0.747-1.457,1.12-2.607,1.12c-2.261,0-3.39-1.328-3.39-3.985V156.771z M432.632,164.633v-8c0-0.991-0.38-1.487-1.141-1.487
		c-0.76,0-1.14,0.496-1.14,1.487v8c0,0.998,0.38,1.497,1.14,1.497C432.252,166.13,432.632,165.631,432.632,164.633z"/>
	<path fill="#FFFFFF" d="M438.786,153.46h2.261v11.104c0,0.912,0.39,1.368,1.17,1.368c0.747,0,1.119-0.456,1.119-1.368V153.46h2.252
		v10.717c0,1.19-0.262,2.125-0.783,2.806c-0.582,0.747-1.451,1.12-2.607,1.12c-2.274,0-3.411-1.328-3.411-3.985V153.46z"/>
	<path fill="#FFFFFF" d="M449.749,153.46h2.19v5.85h2.211v-5.85h2.211v14.335h-2.211v-6.414h-2.211v6.414h-2.19V153.46z"/>
	<path fill="#FFFFFF" d="M459.65,167.795l2.359-14.335h2.886l2.349,14.335h-2.28l-0.438-3.103h-2.234l-0.471,3.103H459.65z
		 M462.576,162.66h1.685l-0.752-5.988l-0.139,0L462.576,162.66z"/>
	<path fill="#FFFFFF" d="M470.545,167.795V153.46h2.25v14.335H470.545z"/>
	<path fill="#FFFFFF" d="M475.787,155.532v-2.072h6.801v2.072h-2.3v12.264h-2.212v-12.264H475.787z"/>
	<path fill="#FFFFFF" d="M485.639,167.795V153.46h5.76v2.072h-3.549v3.757h2.558v2.072h-2.558v4.283h3.549v2.151H485.639z"/>
</g>
<path fill="#FFFFFF" filter="url(#AI_Shadow_1)" d="M357.11,356.546c0,5.606-1.979,12.178-4.64,18.943
	c-0.481,4.736-0.775,9.809-0.775,14.787c0,13.724,2.177,26.097,8.362,26.097c2.465,0,4.158-1.788,5.221-4.495l4.106,1.45
	c-1.787,4.447-4.834,6.812-8.988,6.812c-9.184,0-12.613-10.195-12.613-25.176c0-2.948,0.147-6.139,0.387-9.474
	c-1.932,4.303-3.867,8.555-5.508,12.566c0,0.628,0,1.208,0,1.836c0,3.141-0.195,6.331-0.68,9.762l-4.736-0.387
	c0-2.754,0.677-5.798,1.74-8.988c-0.24-5.364-0.821-10.438-1.351-15.368c-4.157,16.094-12.468,25.227-22.861,25.227
	c-9.906,0-14.353-6.767-14.353-13.821c0-7.732,5.319-15.851,14.646-15.851c6.038,0,9.279,4.495,9.279,9.858
	c0,2.562-0.776,5.315-2.321,7.876l-4.058-2.223c1.398-2.319,2.075-4.736,2.075-6.765c0-3.43-1.833-5.944-5.313-5.944
	c-5.994,0-9.956,6.814-9.956,13.144c0,5.607,3.094,10.826,10.486,10.826c9.231,0,17.977-11.453,21.648-28.512
	c-0.53-4.833-0.916-9.569-0.916-14.354c0-1.11,0.047-2.222,0.095-3.382h4.397c-0.048,4.348-0.335,8.456-0.77,12.273
	c1.063,7.057,2.028,13.001,2.561,18.8c2.079-4.543,4.493-9.183,6.619-13.677c0.869-6.957,2.126-14.354,3.723-21.843H357.11z"/>
<path fill="#FFFFFF" filter="url(#AI_Shadow_1)" d="M362.858,377.132c-1.692,7.54-3.094,13.145-3.094,17.106
	c0,1.402,0.531,1.644,0.965,1.644c1.257,0,2.854-2.705,4.981-8.263c0.239,0,1.351,0.338,1.351,0.628v0.048
	c-2.127,5.511-3.819,11.115-7.778,11.115c-2.612,0-3.48-2.416-3.48-5.751c0-5.364,2.126-13.046,2.947-16.527H362.858z
	 M359.33,371.865c0-1.739,1.258-3.819,3.385-3.819c1.59,0,2.27,1.162,2.27,2.513c0,1.74-1.255,3.771-3.381,3.771
	C360.055,374.329,359.33,373.17,359.33,371.865z"/>
<path fill="#FFFFFF" filter="url(#AI_Shadow_1)" d="M376.63,387.619c0.239,0,1.159,0.388,1.159,0.628c0,0.048,0,0.048,0,0.048
	c-2.852,7.733-5.074,11.357-8.216,11.357c-2.899,0-4.058-2.851-4.058-7.877c0-3.528,0.58-8.168,1.545-13.677
	c2.174-12.129,5.217-17.591,8.023-17.591c2.51,0,3.238,2.029,3.238,4.496c0,2.851-0.97,6.28-1.453,7.778
	c-1.98,6.331-5.217,11.066-7.152,13.437c-0.24,2.076-0.386,3.961-0.386,5.508c0,3.238,0.727,4.252,1.839,4.252
	C372.715,395.979,374.551,392.984,376.63,387.619z M375.71,363.748c-1.306,0-4.154,10.438-5.556,19.425
	c2.417-4.397,5.994-12.468,6.041-18.364C376.195,364.132,375.953,363.748,375.71,363.748z"/>
<path fill="#FFFFFF" filter="url(#AI_Shadow_1)" d="M390.448,387.619c0.292,0,1.354,0.388,1.354,0.676
	c-2.417,6.332-4.831,11.357-9.569,11.357c-4.205,0-5.945-3.866-5.945-8.41c0-6.57,3.624-14.594,9.04-14.594
	c2.417,0,3.624,1.74,3.624,3.965c0,3.429-2.899,8.068-8.602,8.987c0,0.241,0,0.483,0,0.725c0,2.9,0.82,5.219,3.047,5.219
	C386.244,395.544,388.613,392.548,390.448,387.619z M380.494,387.763c3.624-1.787,5.221-5.121,5.221-6.909
	c0-0.725-0.288-1.208-0.773-1.208C382.958,379.646,381.075,383.754,380.494,387.763z"/>
<path fill="#FFFFFF" filter="url(#AI_Shadow_1)" d="M430.523,382.015h-0.29c-2.079,0-3.818-0.485-5.27-1.306
	c-7.439,2.367-11.11,9.665-11.11,16.14c0,6.041,3.188,11.356,9.419,11.356c7.3,0,10.488-6.524,10.488-11.792
	c0-3.574-1.449-6.571-4.157-6.571c-2.366,0-4.058,2.464-4.058,5.411c0,1.354,0.339,2.805,1.111,4.157l-4.449,2.174
	c-0.867-1.69-1.302-3.479-1.302-5.219c0-4.977,3.333-9.422,8.938-9.422c5.512,0,8.268,4.251,8.268,9.181
	c0,6.67-5.074,14.499-15.127,14.499c-9.379,0-13.965-6.333-13.965-13.436c0-7.2,4.734-15.127,13.917-18.024
	c-0.629-0.628-1.211-1.354-1.644-2.126c-1.062,0.095-2.127,0.143-3.286,0.143c-10.729,0-14.934-5.122-14.934-9.856
	c0-4.108,3.095-7.927,7.878-7.927c3.336,0,5.849,1.209,7.78,4.592l-3.333,2.513c-0.919-1.98-2.127-3.189-4.447-3.189
	c-2.514,0-4.059,1.934-4.059,4.203c0,3.288,3.139,7.249,11.114,7.249c0.772,0,1.497-0.047,2.224-0.096
	c-0.482-1.498-0.727-3.143-0.727-4.833c0-6.62,3.817-13.48,10.729-13.48c4.735,0,7.251,3.139,7.251,7.005
	c0,4.783-3.87,10.68-12.034,12.903c0.335,0.774,0.772,1.499,1.305,2.077c1.157-0.193,2.462-0.289,3.769-0.289h0.482L430.523,382.015
	z M424.144,369.546c0,1.447,0.144,2.852,0.435,4.155c5.994-2.127,8.459-7.103,8.459-10.728c0-2.368-1.112-4.204-2.999-4.204
	C426.175,358.77,424.144,364.182,424.144,369.546z"/>
<path fill="#FFFFFF" filter="url(#AI_Shadow_1)" d="M439.313,399.169c0,0,0.436-4.398,1.791-8.022
	c0.965-5.46,1.785-10.342,2.366-14.015h4.156l-0.532,3.238c1.549-2.319,3.48-3.768,5.509-3.768c1.692,0,2.807,1.108,2.807,3.429
	c0,4.495-3.142,10.245-3.142,14.207c0,1.402,0.53,1.644,0.965,1.644c1.253,0,2.851-2.705,4.978-8.263c0.287,0,1.35,0.388,1.35,0.676
	c-2.122,5.511-4.298,11.115-8.264,11.115c-1.688,0-3.281-1.353-3.281-4.301c0-5.218,3.139-10.583,3.139-14.062
	c0-0.531-0.244-0.965-0.773-0.965c-1.207,0-3.334,2.269-4.931,9.085l-1.93,10.002H439.313z"/>
<path fill="#FFFFFF" filter="url(#AI_Shadow_1)" d="M472.271,361.137h3.819c-0.194,4.108-1.934,14.015-4.01,22.036
	c-0.924,5.171-1.307,8.216-1.307,9.812c0,1.014,0.145,1.4,0.482,1.4c1.111,0,2.561-2.755,4.107-6.766
	c0.294,0,1.356,0.388,1.356,0.676c-2.95,7.733-5.702,11.115-7.93,11.115c-1.543,0-2.412-1.4-2.412-4.735c0-0.146,0-0.338,0-0.531
	c-1.114,2.946-2.808,5.509-5.56,5.509c-2.37,0-3.335-2.658-3.335-6.139c0-6.813,3.673-16.865,8.265-16.865
	c1.785,0,2.801,1.062,3.142,3.239L472.271,361.137z M461.544,393.03c0,1.499,0.286,2.513,0.965,2.513
	c2.226,0,4.979-7.875,4.979-12.37c0-1.788-0.437-3.044-1.499-3.044C463.91,380.129,461.544,388.682,461.544,393.03z"/>
<g filter="url(#AI_Shadow_1)">
	<path fill="none" stroke="#FFFFFF" stroke-width="1.8439" stroke-linecap="round" stroke-miterlimit="10" d="M373.032,446.847
		c3.63,0,5.478-4.724,8.989-4.724c3.544,0,5.359,4.724,8.989,4.724"/>
	<path fill="none" stroke="#FFFFFF" stroke-width="1.8439" stroke-linecap="round" stroke-miterlimit="10" d="M391.01,446.847
		c3.63,0,5.478-4.724,8.989-4.724c3.549,0,5.36,4.724,8.989,4.724"/>
	<path fill="none" stroke="#FFFFFF" stroke-width="1.8439" stroke-linecap="round" stroke-miterlimit="10" d="M408.988,446.847
		c3.63,0,5.479-4.724,8.989-4.724c3.547,0,5.358,4.724,8.99,4.724"/>
</g>
<g filter="url(#AI_Shadow_1)">
	<path fill="#FFFFFF" d="M148.766,242.696h-21.938l11.657-31.514c0.027-0.074,0.018-0.244-0.028-0.308
		c-0.045-0.064-0.118-0.191-0.196-0.191h-14.563c-0.1,0-0.189,0.149-0.224,0.242l-11.882,31.771H92.908l11.693-31.514
		c0.027-0.073,0.017-0.244-0.028-0.308c-0.044-0.064-0.117-0.191-0.196-0.191H89.728c-0.1,0-0.189,0.149-0.224,0.242l-11.846,31.771
		H53.61c-0.1,0-0.189,0.064-0.224,0.158l-4.674,12.561c-0.027,0.073-0.016,0.085,0.028,0.149c0.044,0.064,0.118,0.032,0.196,0.032
		h23.768l-6.678,18.156H43.417c-0.1,0-0.188,0.09-0.224,0.183l-4.678,12.427c-0.028,0.073-0.017,0.14,0.027,0.204
		c0.044,0.064,0.118,0.086,0.197,0.086h22.58l-11.84,31.393c-0.028,0.073-0.017,0.065,0.028,0.13
		c0.044,0.063,0.118,0.013,0.196,0.013h14.568c0.099,0,0.187,0.018,0.222-0.075l12.035-31.46h18.839l-11.844,31.393
		c-0.028,0.073-0.018,0.065,0.026,0.13c0.045,0.063,0.118,0.013,0.196,0.013h14.646c0.1,0,0.188,0.017,0.224-0.075l11.906-31.46
		h23.37c0.1,0,0.188-0.038,0.224-0.131l4.676-12.401c0.028-0.074,0.018-0.178-0.027-0.243c-0.044-0.065-0.118-0.125-0.197-0.125
		h-23.406l6.73-18.156h22.341c0.101,0,0.19,0.008,0.225-0.087l4.532-12.524c0.026-0.073,0.016-0.14-0.029-0.203
		C148.917,242.718,148.844,242.696,148.766,242.696z M106.98,255.596l-6.808,18.156H81.105l6.756-18.156H106.98z"/>
	<path fill="#FFFFFF" d="M202.652,263.725c7.75-5.659,11.679-13.755,11.679-24.072c0-8.788-2.513-15.572-7.471-20.392
		c-4.958-4.818-12.121-7.145-21.291-7.145h-22.618c-0.132,0-0.078-0.124-0.078,0.007v105.591c0,0.132-0.054,0.474,0.078,0.474
		h25.226c18.322,0,27.612-9.705,27.612-28.616C215.789,277.42,211.369,268.649,202.652,263.725z M186.797,256.074h-6.723v-28.667
		h5.342c7.424,0,11.033,4.803,11.033,14.224C196.449,251.199,193.292,256.074,186.797,256.074z M180.074,271.364h5.342
		c4.846,0,8.233,1.644,10.072,4.671c1.452,2.336,2.188,6.261,2.188,11.35c0,10.011-3.408,15.035-10.419,15.035h-7.182V271.364z"/>
	<path fill="#FFFFFF" d="M269.973,209.621c-8.562,0-15.443,2.481-20.222,7.374c-4.625,4.698-7.085,11.265-7.085,19.518v54.11
		c0,19.636,9.02,29.593,26.577,29.593c8.928,0,15.935-2.805,20.511-8.338c4.157-5.034,6.426-12.037,6.426-20.817v-54.11
		c0-8.055-2.29-14.619-6.604-19.51C284.949,212.252,278.285,209.621,269.973,209.621z M260.822,235.491
		c0-7.21,2.828-10.715,8.601-10.715s8.601,3.505,8.601,10.715v58.929c0,7.259-2.828,10.79-8.601,10.79s-8.601-3.53-8.601-10.79
		V235.491z"/>
	<path fill="#FFFFFF" d="M381.441,212.116h-16.025c-0.132,0-0.434-0.124-0.434,0.007v60.091c0,1.858,0.449,4.935,1.147,9.177
		c-0.738-2.598-1.335-4.696-1.883-6.266l-21.713-62.964c-0.033-0.097-0.099-0.046-0.201-0.046h-15.33
		c-0.132,0-0.245-0.124-0.245,0.007v105.591c0,0.132,0.113,0.474,0.245,0.474h15.872c0.132,0,0.129-0.342,0.129-0.474v-55.206
		c0-1.663-0.35-5.082-1.179-10.396c0.569,1.865,1.29,3.951,2.101,6.24l0.333,0.907c0.048,0.093,0.057,0.112,0.057,0.111
		c0,0.027,0.009,0.054,0.017,0.079l20.857,58.462c0.034,0.096,0.125,0.276,0.227,0.276h16.025c0.132,0,0.263-0.342,0.263-0.474
		V212.124C381.705,211.992,381.574,212.116,381.441,212.116z"/>
	<path fill="#FFFFFF" d="M439.546,212.116h-25.073c-0.132,0-0.276-0.124-0.276,0.007v105.591c0,0.132,0.145,0.474,0.276,0.474
		h17.099c0.132,0,0.304-0.342,0.304-0.474v-42.529h11.428c8.233,0,14.444-3.762,18.457-11.016c3.124-5.706,4.708-12.961,4.708-21.48
		c0-9.984-1.823-17.382-5.416-22.175C456.781,214.879,449.544,212.116,439.546,212.116z M431.875,227.406h5.831
		c4.634,0,7.761,1.638,9.295,4.654c1.051,2.001,1.584,5.679,1.584,10.824c0,5.395-0.433,9.198-1.286,11.253
		c-1.435,3.487-4.456,5.281-8.98,5.281h-6.443V227.406z"/>
	<path fill="#FFFFFF" d="M523.104,212.116h-22.31c-0.116,0-0.216-0.031-0.235,0.083l-18.251,105.532
		c-0.011,0.07,0.008,0.229,0.054,0.283c0.045,0.054,0.112,0.174,0.183,0.174h16.785c0.117,0,0.217-0.125,0.235-0.242l3.606-22.692
		h16.873l3.358,22.69c0.018,0.118,0.118,0.244,0.236,0.244h17.638c0.071,0,0.136-0.149,0.182-0.202
		c0.047-0.055,0.065-0.184,0.054-0.255l-18.172-105.502C523.321,212.114,523.222,212.116,523.104,212.116z M517.926,279.486h-12.483
		l6.078-43.545l0.653-0.042L517.926,279.486z"/>
	<path fill="#FFFFFF" d="M607.857,268.748c7.152-4.815,10.777-13.595,10.777-26.101c0-9.983-1.822-17.361-5.414-22.154
		c-4.271-5.635-11.509-8.377-21.508-8.377h-25.072c-0.132,0-0.027-0.124-0.027,0.007v105.591c0,0.132-0.104,0.474,0.027,0.474
		h17.099c0.132,0,0.075-0.342,0.075-0.474v-43.962h7.89l10.544,44.234c0.025,0.106,0.121,0.202,0.232,0.202h17.678
		c0.003,0,0.007,0,0.009,0c0.133,0,0.239-0.224,0.239-0.356c0-0.044-0.011-0.145-0.03-0.18L607.857,268.748z M583.814,227.406h6.06
		c4.535,0,7.612,1.493,9.147,4.224c1.148,2,1.73,5.527,1.73,10.378c0,5.103-0.459,8.843-1.358,10.894
		c-1.485,3.299-4.482,5.083-8.906,5.083h-6.673V227.406z"/>
	<path fill="#FFFFFF" d="M690.837,212.116H638.24c-0.133,0-0.433-0.124-0.433,0.007v15.262c0,0.132,0.3,0.021,0.433,0.021h17.245
		v90.309c0,0.132,0.334,0.474,0.466,0.474h17.099c0.132,0,0.114-0.342,0.114-0.474v-90.309h17.673c0.133,0,0.005,0.112,0.005-0.021
		v-15.262C690.842,211.992,690.97,212.116,690.837,212.116z"/>
	<path fill="#FFFFFF" d="M761.478,212.099c-0.043-0.062-0.116,0.017-0.191,0.017h-17.404c-0.11,0-0.206-0.006-0.233,0.101
		l-10.535,41.946h-0.702l-11.071-41.948c-0.028-0.105-0.122-0.099-0.23-0.099h-17.328c-0.077,0-0.148-0.079-0.193-0.017
		c-0.047,0.062-0.161,0.084-0.136,0.156l20.358,63.655v41.805c0,0.132,0.311,0.474,0.442,0.474h17.099
		c0.131,0,0.137-0.342,0.137-0.474v-43.776l19.975-61.683C761.485,212.183,761.524,212.161,761.478,212.099z"/>
</g>
</svg>
